<svg width="25" height="24" viewBox="0 0 25 24" fill="none" xmlns="http://www.w3.org/2000/svg">
<path d="M3.69971 6H5.69971H21.6997" stroke="#A30D11" stroke-width="2" stroke-linecap="round" stroke-linejoin="round"/>
<path d="M8.69971 6V4C8.69971 3.46957 8.91042 2.96086 9.28549 2.58579C9.66057 2.21071 10.1693 2 10.6997 2H14.6997C15.2301 2 15.7388 2.21071 16.1139 2.58579C16.489 2.96086 16.6997 3.46957 16.6997 4V6M19.6997 6V20C19.6997 20.5304 19.489 21.0391 19.1139 21.4142C18.7388 21.7893 18.2301 22 17.6997 22H7.69971C7.16927 22 6.66057 21.7893 6.28549 21.4142C5.91042 21.0391 5.69971 20.5304 5.69971 20V6H19.6997Z" stroke="#A30D11" stroke-width="2" stroke-linecap="round" stroke-linejoin="round"/>
<path d="M10.6997 11V17" stroke="#A30D11" stroke-width="2" stroke-linecap="round" stroke-linejoin="round"/>
<path d="M14.6997 11V17" stroke="#A30D11" stroke-width="2" stroke-linecap="round" stroke-linejoin="round"/>
</svg>
