<svg width="25" height="24" viewBox="0 0 25 24" fill="none" xmlns="http://www.w3.org/2000/svg">
<path d="M11.6997 4H4.69971C4.16927 4 3.66057 4.21071 3.28549 4.58579C2.91042 4.96086 2.69971 5.46957 2.69971 6V20C2.69971 20.5304 2.91042 21.0391 3.28549 21.4142C3.66057 21.7893 4.16927 22 4.69971 22H18.6997C19.2301 22 19.7388 21.7893 20.1139 21.4142C20.489 21.0391 20.6997 20.5304 20.6997 20V13" stroke="#1672EC" stroke-width="2" stroke-linecap="round" stroke-linejoin="round"/>
<path d="M19.1997 2.50023C19.5975 2.1024 20.1371 1.87891 20.6997 1.87891C21.2623 1.87891 21.8019 2.1024 22.1997 2.50023C22.5975 2.89805 22.821 3.43762 22.821 4.00023C22.821 4.56284 22.5975 5.1024 22.1997 5.50023L12.6997 15.0002L8.69971 16.0002L9.69971 12.0002L19.1997 2.50023Z" stroke="#1672EC" stroke-width="2" stroke-linecap="round" stroke-linejoin="round"/>
</svg>
