<svg width="19" height="21" viewBox="0 0 19 21" fill="none" xmlns="http://www.w3.org/2000/svg">
<path d="M5.9375 13.7812C5.9375 13.4188 6.20333 13.125 6.53125 13.125H8.90625C9.23417 13.125 9.5 13.4188 9.5 13.7812C9.5 14.1437 9.23417 14.4375 8.90625 14.4375H6.53125C6.20333 14.4375 5.9375 14.1437 5.9375 13.7812Z" fill="black"/>
<path d="M5.9375 11.1562C5.9375 10.7938 6.20333 10.5 6.53125 10.5H12.4688C12.7967 10.5 13.0625 10.7938 13.0625 11.1562C13.0625 11.5187 12.7967 11.8125 12.4688 11.8125H6.53125C6.20333 11.8125 5.9375 11.5187 5.9375 11.1562Z" fill="black"/>
<path d="M5.9375 8.53125C5.9375 8.16881 6.20333 7.875 6.53125 7.875H12.4688C12.7967 7.875 13.0625 8.16881 13.0625 8.53125C13.0625 8.89369 12.7967 9.1875 12.4688 9.1875H6.53125C6.20333 9.1875 5.9375 8.89369 5.9375 8.53125Z" fill="black"/>
<path d="M5.9375 5.90625C5.9375 5.54381 6.20333 5.25 6.53125 5.25H12.4688C12.7967 5.25 13.0625 5.54381 13.0625 5.90625C13.0625 6.26869 12.7967 6.5625 12.4688 6.5625H6.53125C6.20333 6.5625 5.9375 6.26869 5.9375 5.90625Z" fill="black"/>
<path d="M3.5625 0H15.4375C16.7492 0 17.8125 1.17525 17.8125 2.625V18.375C17.8125 19.8247 16.7492 21 15.4375 21H3.5625C2.25082 21 1.1875 19.8247 1.1875 18.375V17.0625H2.375V18.375C2.375 19.0999 2.90666 19.6875 3.5625 19.6875H15.4375C16.0933 19.6875 16.625 19.0999 16.625 18.375V2.625C16.625 1.90013 16.0933 1.3125 15.4375 1.3125H3.5625C2.90666 1.3125 2.375 1.90013 2.375 2.625V3.9375H1.1875V2.625C1.1875 1.17525 2.25082 0 3.5625 0Z" fill="black"/>
<path d="M1.1875 6.5625V5.90625C1.1875 5.54381 1.45333 5.25 1.78125 5.25C2.10917 5.25 2.375 5.54381 2.375 5.90625V6.5625H2.96875C3.29667 6.5625 3.5625 6.85631 3.5625 7.21875C3.5625 7.58119 3.29667 7.875 2.96875 7.875H0.59375C0.265831 7.875 0 7.58119 0 7.21875C0 6.85631 0.265831 6.5625 0.59375 6.5625H1.1875Z" fill="black"/>
<path d="M1.1875 10.5V9.84375C1.1875 9.48131 1.45333 9.1875 1.78125 9.1875C2.10917 9.1875 2.375 9.48131 2.375 9.84375V10.5H2.96875C3.29667 10.5 3.5625 10.7938 3.5625 11.1562C3.5625 11.5187 3.29667 11.8125 2.96875 11.8125H0.59375C0.265831 11.8125 0 11.5187 0 11.1562C0 10.7938 0.265831 10.5 0.59375 10.5H1.1875Z" fill="black"/>
<path d="M1.1875 14.4375V13.7812C1.1875 13.4188 1.45333 13.125 1.78125 13.125C2.10917 13.125 2.375 13.4188 2.375 13.7812V14.4375H2.96875C3.29667 14.4375 3.5625 14.7313 3.5625 15.0938C3.5625 15.4562 3.29667 15.75 2.96875 15.75H0.59375C0.265831 15.75 0 15.4562 0 15.0938C0 14.7313 0.265831 14.4375 0.59375 14.4375H1.1875Z" fill="black"/>
</svg>
