<svg width="19" height="21" viewBox="0 0 19 21" fill="none" xmlns="http://www.w3.org/2000/svg">
<path d="M9.5 5.25C9.82792 5.25 10.0938 5.54381 10.0938 5.90625V9.84375H13.6562C13.9842 9.84375 14.25 10.1376 14.25 10.5C14.25 10.8624 13.9842 11.1562 13.6562 11.1562H10.0938V15.0938C10.0938 15.4562 9.82792 15.75 9.5 15.75C9.17208 15.75 8.90625 15.4562 8.90625 15.0938V11.1562H5.34375C5.01583 11.1562 4.75 10.8624 4.75 10.5C4.75 10.1376 5.01583 9.84375 5.34375 9.84375H8.90625V5.90625C8.90625 5.54381 9.17208 5.25 9.5 5.25Z" fill="white"/>
</svg>
